
<svg xmlns="http://www.w3.org/2000/svg" version="1.1" xmlns:xlink="http://www.w3.org/1999/xlink" preserveAspectRatio="none" x="0px" y="0px" width="400px" height="400px" viewBox="0 0 400 400">
<defs>
<g id="Layer1_0_FILL">
<path fill="#FFFFFF" stroke="none" d="
M 361.3 156.9
Q 359.419140625 157.6580078125 357.5 158.4 197.5 250.1931640625 34.7 158.05 33.54296875 157.3623046875 32.2 157.05 31.1294921875 156.8 29.95 156.8 26.05 156.8 23.3 159.6 23.2 159.65 23.05 159.8 21.85 161.1 21.25 162.65 20.55 164.3 20.55 166.3 20.55 170.25 23.3 172.95 23.8 173.45 24.75 174.05 25.8 174.65 26.1 174.9 41.178515625 188.4630859375 58 199.25
L 38.3 232
Q 37.410546875 233.354296875 36.85 234.8 35.7 237.5 35.7 240.75 35.7 247.2 40.2 251.6 44.65 256.15 51.05 256.15 57.5 256.15 62 251.6 63.8501953125 249.791015625 64.95 247.6
L 85.1 214.35
Q 93.6953125 218.4865234375 102.7 222 109.8013671875 224.7587890625 117 227.05
L 106.55 264.5
Q 105.8 266.79453125 105.8 269.45 105.8 275.9 110.3 280.3 114.75 284.85 121.15 284.85 127.6 284.85 132.1 280.3 135.0771484375 277.3888671875 136.05 273.55
L 136.1 273.45 147.2 234.85
Q 164.31015625 238.14609375 181.9 239.1
L 181.65 278.4
Q 181.6 279.0626953125 181.6 279.75 181.6 286.2 186.1 290.6 190.55 295.15 196.95 295.15 203.4 295.15 207.9 290.6 212.4 286.2 212.4 279.75 212.4 279.3974609375 212.35 279.05
L 212.15 238.95
Q 229.617578125 237.88828125 246.7 234.4
L 256.6 272.55
Q 256.6869140625 272.8951171875 256.75 273.2 257.7255859375 277.2451171875 260.85 280.3 265.3 284.85 271.7 284.85 278.15 284.85 282.65 280.3 287.15 275.9 287.15 269.45 287.15 267.378125 286.65 265.5 286.582421875 265.131640625 286.45 264.75
L 275.85 226.7
Q 279.1794921875 225.63671875 282.5 224.45 296.1708984375 219.561328125 309.15 213.2
L 328.65 247.85
Q 329.75546875 249.894140625 331.5 251.6 335.95 256.15 342.35 256.15 348.8 256.15 353.3 251.6 357.8 247.2 357.8 240.75 357.8 235.5548828125 354.8 231.6
L 334.75 198.9
Q 352.038671875 187.97421875 367.95 174.15
L 369.45 172.95
Q 372.25 170.25 372.25 166.3 372.25 162.35 369.45 159.6 366.7 156.8 362.75 156.8 362.0130859375 156.8 361.3 156.9 Z"/>
</g>
</defs>

<g transform="matrix( 1, 0, 0, 1, 0,0) ">
<use xlink:href="#Layer1_0_FILL"/>
</g>
</svg>
