
<svg xmlns="http://www.w3.org/2000/svg" version="1.1" xmlns:xlink="http://www.w3.org/1999/xlink" preserveAspectRatio="none" x="0px" y="0px" width="400px" height="400px" viewBox="0 0 400 400">
<defs>
<g id="Layer1_0_FILL">
<path fill="#FFFFFF" stroke="none" d="
M 354.65 133.55
Q 355.6 132.25 356.15 130.8 357.3 128.1 357.3 124.85 357.3 118.4 352.8 114 348.35 109.45 341.95 109.45 335.5 109.45 331 114 329.15 115.8 328.05 117.95
L 307.9 151.2
Q 299.3 147.1 290.3 143.6 283.2 140.85 276 138.5
L 286.4 101.1
Q 287.2 98.8 287.2 96.15 287.2 89.7 282.7 85.3 278.25 80.75 271.85 80.75 265.4 80.75 260.9 85.3 257.9 88.2 256.9 92
L 256.9 92.15 245.8 130.75
Q 228.7 127.45 211.1 126.5
L 211.35 87.2
Q 211.4 86.55 211.4 85.85 211.4 79.4 206.9 75 202.45 70.45 196.05 70.45 189.6 70.45 185.1 75 180.6 79.4 180.6 85.85 180.6 86.2 180.6 86.55
L 180.85 126.6
Q 163.4 127.7 146.3 131.15
L 136.35 93
Q 136.3 92.7 136.25 92.4 135.25 88.35 132.15 85.3 127.7 80.75 121.3 80.75 114.85 80.75 110.35 85.3 105.85 89.7 105.85 96.15 105.85 98.2 106.3 100.1 106.4 100.45 106.5 100.8
L 117.15 138.85
Q 113.8 139.95 110.5 141.15 96.85 146.05 83.8 152.35
L 64.3 117.7
Q 63.25 115.7 61.5 114 57.05 109.45 50.65 109.45 44.2 109.45 39.7 114 35.2 118.4 35.2 124.85 35.2 130.05 38.15 134
L 58.2 166.65
Q 40.95 177.65 25 191.4
L 23.55 192.65
Q 20.75 195.35 20.75 199.3 20.75 203.25 23.55 206 26.3 208.8 30.25 208.8 31 208.8 31.65 208.7 33.6 207.95 35.45 207.2 76.6 183.6 117.9 172.15 102.4 195.1 102.4 224.45 102.4 263.7 130.1 291.4 157.85 319.15 197.1 319.15 236.35 319.15 264.05 291.4 291.8 263.7 291.8 224.45 291.8 195.55 276.75 172.85 317.4 184.4 358.25 207.5 359.45 208.25 360.8 208.55 361.85 208.8 363.05 208.8 366.95 208.8 369.7 206 369.8 205.95 369.95 205.8 371.15 204.5 371.75 202.95 372.45 201.3 372.45 199.3 372.45 195.35 369.7 192.65 369.2 192.15 368.25 191.55 367.2 190.95 366.85 190.65 351.8 177.15 334.95 166.3
L 354.65 133.55
M 196.9 163.55
Q 222 163.55 239.7 181.3 257.4 199 257.4 224.1 257.4 249.2 239.7 266.95 222 284.65 196.9 284.65 171.75 284.65 154.05 266.95 136.35 249.2 136.35 224.1 136.35 199 154.05 181.3 171.75 163.55 196.9 163.55
M 196.55 184.75
Q 188.4 184.75 181.45 187.7 185.75 191.7 187.1 197.25 187.4 198.5 187.5 199.8 188.15 205.85 184.15 210.2 179.2 215.6 170.9 214.5 164.75 213.65 160.1 209.6 157.6 216.1 157.6 223.7 157.6 239.85 169 251.25 180.4 262.65 196.55 262.65 212.7 262.65 224.1 251.25 235.5 239.85 235.5 223.7 235.5 207.55 224.1 196.15 212.7 184.75 196.55 184.75 Z"/>
</g>
</defs>

<g transform="matrix( 1, 0, 0, 1, 0,0) ">
<use xlink:href="#Layer1_0_FILL"/>
</g>
</svg>
