
<svg xmlns="http://www.w3.org/2000/svg" version="1.1" xmlns:xlink="http://www.w3.org/1999/xlink" preserveAspectRatio="none" x="0px" y="0px" width="1180px" height="1180px" viewBox="0 0 1180 1180">
<defs>
<g id="Layer0_0_FILL">
<path fill="#FFFFFF" stroke="none" d="
M 779.3 480.3
Q 793.65 492.6 794.25 480.3
L 794.25 364.35
Q 603.15 296.85 466.9 364.35 428.05 383.6 406.75 419.7 386.8 453.5 387 493.2 387.3 532.85 407.35 565.5 416.8 580.95 432.6 594 443.85 603.55 465 616.4 488.45 630.85 555.55 645.95 573.05 649.75 605.4 656.65 631.3 662.4 642.15 666.4 676.45 679.1 680.15 702.75 682.55 718.4 672.65 732.55 662.3 747.35 637.05 754.2 596.9 765.2 526.1 753.15 504.15 749.45 482.15 740.6 464.3 733.45 444.4 722.2 409.35 702.05 399.6 693.25 385.2 681.1 384.65 693.25
L 384.65 812.6
Q 401.65 822.05 440.8 833.35 479.9 844.45 540.05 850.25 567.85 852.9 595.95 851.4 618.85 850.25 644.4 846.3 733.75 832.2 777.6 782.85 799.85 757.9 809.1 722.4 818 688.35 812.65 659.4 806.75 628.15 786.75 602.9 765.85 576.65 732.3 560.5 710.35 547.85 648.65 534.2 583.85 521.2 566.9 516.45 538.05 508.4 526.65 493.4 517.35 481.1 521.1 467 525 452.95 536.9 442.55 548.95 432.2 587.05 425.4 625.15 418.65 677.8 431.2 730.55 443.65 779.3 480.3 Z"/>
</g>

<g id="Symbol_3_0_Layer0_0_FILL">
<path fill="#FFFFFF" stroke="none" d="
M 78.5 270.05
Q 78.5 169.75 149.4 98.85 220.3 27.95 320.6 27.95 390.85 27.95 446.7 62.75 372.5 0 272.1 0 159.45 0 79.75 79.05 0 158.15 0 269.95 0 381.7 79.75 460.8 159.45 539.85 272.1 539.85 371.65 539.85 445.5 478.15 390.05 512.2 320.6 512.2 220.3 512.2 149.4 441.25 78.5 370.35 78.5 270.05
M 483.6 117.2
Q 419.85 53.95 329.7 53.95 249.35 53.95 190 104.15 234.7 76.3 290.9 76.3 371.15 76.3 427.85 133 484.6 189.75 484.6 270 484.6 350.25 427.85 406.95 371.15 463.75 290.9 463.75 235.35 463.75 190.95 436.5 250.05 485.85 329.7 485.85 419.85 485.85 483.6 422.6 547.4 359.35 547.4 269.9 547.4 180.45 483.6 117.2 Z"/>
</g>
</defs>

<g transform="matrix( 1, 0, 0, 1, 0,0) ">
<use xlink:href="#Layer0_0_FILL"/>
</g>

<g transform="matrix( 2.145660400390625, 0, 0, 2.145660400390625, 2.7,10.85) ">
<g transform="matrix( 1, 0, 0, 1, 0,0) ">
<use xlink:href="#Symbol_3_0_Layer0_0_FILL"/>
</g>
</g>
</svg>
